<?xml version="1.0" encoding="utf-8"?>
<!-- Generator: Adobe Illustrator 19.0.0, SVG Export Plug-In . SVG Version: 6.00 Build 0)  -->
<svg version="1.1"
	 id="svg8" sodipodi:docname="logo_batvoice_blue_svg.svg" inkscape:version="0.92.4 (5da689c313, 2019-01-14)" xmlns:dc="http://purl.org/dc/elements/1.1/" xmlns:cc="http://creativecommons.org/ns#" xmlns:rdf="http://www.w3.org/1999/02/22-rdf-syntax-ns#" xmlns:svg="http://www.w3.org/2000/svg" xmlns:sodipodi="http://sodipodi.sourceforge.net/DTD/sodipodi-0.dtd" xmlns:inkscape="http://www.inkscape.org/namespaces/inkscape"
	 xmlns="http://www.w3.org/2000/svg" xmlns:xlink="http://www.w3.org/1999/xlink" x="0px" y="0px" viewBox="-70 362.1 121.5 118.8"
	 style="enable-background:new -70 362.1 121.5 118.8;" xml:space="preserve">
<style type="text/css">
	.st0{fill:#03A9F4;}
</style>
<sodipodi:namedview  fit-margin-bottom="0" fit-margin-right="0" inkscape:window-maximized="1" inkscape:window-y="-8" inkscape:current-layer="layer1" inkscape:document-units="mm" inkscape:pageopacity="0.0" inkscape:window-x="-8" inkscape:window-height="1027" inkscape:window-width="1920" inkscape:pageshadow="2" fit-margin-left="0" fit-margin-top="0" showgrid="false" inkscape:cy="39.523189" inkscape:cx="-94.792567" inkscape:zoom="0.35" borderopacity="1.0" bordercolor="#666666" pagecolor="#ffffff" id="base">
	</sodipodi:namedview>
<g id="layer1" transform="translate(-22.056724,-117.37695)" inkscape:groupmode="layer" inkscape:label="Calque 1">
	<path id="path3742" inkscape:connector-curvature="0" class="st0" d="M5.9,598.1c-7.4-0.8-14.1-2.7-20.8-6
		c-6.3-3.1-10.8-6.3-15.7-11.3c-9.2-9.1-14.8-20.5-16.8-33.6c-0.7-4.5-0.7-11.6-0.1-16.1c1.7-12.8,7.4-24.5,16.3-33.7
		c9-9.3,19.9-15,32.9-17.3c2.7-0.5,3.8-0.6,9.7-0.6c5.8,0,7,0.1,9.7,0.6c13,2.3,23.9,8.1,32.9,17.3c9,9.2,14.5,20.6,16.3,33.7
		c0.5,3.7,0.5,11.6,0,15.4c-1.6,11.3-5.9,21.3-13,30.1c-1.9,2.4-6.5,7-9,8.9c-8.3,6.5-18.2,10.8-28.6,12.4
		C16.8,598.2,8.8,598.4,5.9,598.1L5.9,598.1z M15.7,590.9c3-0.5,5.9-2.5,7.2-5.2c1.4-2.9,1.8-4.6,2.3-11.4c0.4-5.9,0.7-7.8,1.5-10.6
		c1.7-6.5,5.9-10.7,12.8-12.9c4.5-1.4,4.9-1.6,5.8-2.4c2.7-2.4,2.7-6.5,0-9c-1.1-1-2.9-1.8-4.2-1.8c-0.8,0-5.8,1.4-7.7,2.2
		c-7.7,3.1-13.2,8-16.5,14.7c-2.4,4.9-3.5,10.3-4.1,19.2c-0.2,3.6-0.4,4.4-0.8,4.4c-0.6,0-3.1-1.4-4.4-2.4
		C0.4,569.9-4,561.1-5.2,549.7c-0.3-3.3-0.1-11,0.4-13.9c0.7-3.9,0.4-5.8-1.1-7.6c-1.7-1.9-4.4-2.6-6.8-1.8c-1.2,0.4-3,2-3.5,3.3
		c-0.2,0.5-0.7,2.5-1,4.4c-0.5,2.9-0.5,4.5-0.6,10c0,8.5,0.7,13.2,2.9,20c4.5,13.7,15.3,24.8,26.2,26.8
		C13.4,591.2,13.8,591.2,15.7,590.9L15.7,590.9z M49.7,528.9c1.8-1.1,2.7-3.3,2.1-5.4c-0.4-1.6-1.1-2.3-5.1-4.9
		c-9.7-6.4-19.5-9.8-31.8-10.9c-4.1-0.4-14.4-0.2-18.4,0.4c-7.1,1-15.8,3-17.2,4.1c-1.3,1-1.8,2.3-1.7,4.2c0.1,1.4,0.2,1.8,0.8,2.5
		c1,1.3,2.4,2,3.8,2c0.7,0,2.8-0.4,4.8-0.9c7.1-1.9,13.2-2.6,20.8-2.6c10.8,0,19.5,1.9,27.9,6.2c2.3,1.2,4,2.2,8.1,5.1
		C45.8,529.8,47.8,530,49.7,528.9L49.7,528.9z M57.5,517c2.3-1.2,3.3-4.2,2.2-6.5c-1-1.9-6.5-6.4-11.4-9.3c-7.8-4.5-17-7.3-28.2-8.4
		c-4.9-0.5-16.8-0.4-22.3,0.2c-10.8,1.2-22.9,3.8-24.8,5.3c-2.7,2-2.4,6.3,0.4,7.9c1.8,1,2.4,1,7.8-0.3c2.7-0.7,6.2-1.4,7.7-1.7
		c18.6-3.3,36-2.4,48,2.4c5.3,2.1,8.8,4.2,13,7.9c1.7,1.5,3.4,2.7,3.7,2.8c0.4,0.1,0.8,0.2,0.9,0.2C55,517.8,56.7,517.4,57.5,517
		L57.5,517z"/>
</g>
</svg>
